<?xml version="1.0" encoding="utf-8"?>
<!-- Generator: Adobe Illustrator 16.0.0, SVG Export Plug-In . SVG Version: 6.00 Build 0)  -->
<!DOCTYPE svg PUBLIC "-//W3C//DTD SVG 1.1//EN" "http://www.w3.org/Graphics/SVG/1.1/DTD/svg11.dtd">
<svg version="1.1" id="Capa_1" xmlns="http://www.w3.org/2000/svg" xmlns:xlink="http://www.w3.org/1999/xlink" x="0px" y="0px"
	 width="21.422px" height="16.898px" viewBox="0 0 21.422 16.898" enable-background="new 0 0 21.422 16.898" xml:space="preserve">
<path d="M21.422,5.404l-0.561-0.001l0.008-1.319c-0.666-2.563-6.031-5.779-9.976-1.446V2.629c-0.078,0.09-0.135,0.145-0.135,0.145
	S10.7,2.72,10.623,2.629v0.008C6.68-1.696,1.315,1.522,0.649,4.084l0.008,1.319L0.096,5.405v10.984c13.093-0.07,8.23-0.07,21.326,0
	V5.404z M3.95,14.14c1.364-0.812,2.974-0.807,4.327-0.025L3.95,14.14z M2.185,13.611L2.133,4.285
	c1.851-2.885,5.612-3.252,7.907-0.029l0.052,9.351C7.744,11.549,4.512,11.529,2.185,13.611z M13.24,14.115
	c1.354-0.78,2.962-0.785,4.326,0.025L13.24,14.115z M19.333,13.611c-2.326-2.082-5.56-2.062-7.907-0.004l0.053-9.351
	c2.295-3.224,6.056-2.855,7.906,0.029L19.333,13.611z"/>
</svg>
