<?xml version="1.0" encoding="utf-8"?>
<!-- Generator: Adobe Illustrator 16.0.0, SVG Export Plug-In . SVG Version: 6.00 Build 0)  -->
<!DOCTYPE svg PUBLIC "-//W3C//DTD SVG 1.1//EN" "http://www.w3.org/Graphics/SVG/1.1/DTD/svg11.dtd">
<svg version="1.1" id="Capa_1" xmlns="http://www.w3.org/2000/svg" xmlns:xlink="http://www.w3.org/1999/xlink" x="0px" y="0px"
	 width="21.445px" height="21.704px" viewBox="0 0 21.445 21.704" enable-background="new 0 0 21.445 21.704" xml:space="preserve">
<polygon points="20.014,20.167 20.028,16.083 14.348,16.083 14.348,15.144 19.832,15.144 13.762,12.249 13.346,11.265 13.36,8.899 
	13.867,8.901 11.111,4.917 11.126,2.216 12.313,2.223 12.319,1.425 11.13,1.417 11.136,0.175 10.348,0.175 10.356,1.417 
	9.168,1.425 9.173,2.223 10.36,2.216 10.375,4.917 7.617,8.901 8.125,8.899 8.139,11.265 7.722,12.249 1.654,15.144 7.137,15.144 
	7.137,16.083 1.457,16.083 1.471,20.167 0.135,20.167 0.135,21.569 10.743,21.569 21.35,21.569 21.35,20.167 "/>
</svg>
