<?xml version="1.0" encoding="utf-8"?>
<!-- Generator: Adobe Illustrator 17.0.0, SVG Export Plug-In . SVG Version: 6.00 Build 0)  -->
<!DOCTYPE svg PUBLIC "-//W3C//DTD SVG 1.1//EN" "http://www.w3.org/Graphics/SVG/1.1/DTD/svg11.dtd">
<svg version="1.1" id="Capa_1" xmlns="http://www.w3.org/2000/svg" xmlns:xlink="http://www.w3.org/1999/xlink" x="0px" y="0px"
	 width="17.052px" height="28.246px" viewBox="0 0 17.052 28.246" enable-background="new 0 0 17.052 28.246" xml:space="preserve">
<path fill="#231F20" d="M9.562,25.234V14.536h0.507l5.769-8.662h-2.52l1.042-1.871l0.188,0.039c0.563,0,1.017-0.454,1.017-1.016
	S15.111,2.01,14.548,2.01c-0.56,0-1.016,0.455-1.016,1.018c0,0.318,0.157,0.591,0.388,0.78l-1.152,2.067H1.214l5.769,8.662h0.508
	v10.698c-1.896,0.054-3.308,0.253-3.308,0.493c0,0.28,1.944,0.509,4.344,0.509c2.399,0,4.341-0.228,4.341-0.509
	C12.868,25.487,11.457,25.289,9.562,25.234z M12.782,6.839h1.259L12.934,8.5l-1.079,0.002L12.782,6.839z M4.124,8.507l-1.112-1.67
	h9.222L11.306,8.5L4.124,8.507z"/>
</svg>
