<?xml version="1.0" encoding="utf-8"?>
<!-- Generator: Adobe Illustrator 16.0.0, SVG Export Plug-In . SVG Version: 6.00 Build 0)  -->
<!DOCTYPE svg PUBLIC "-//W3C//DTD SVG 1.1//EN" "http://www.w3.org/Graphics/SVG/1.1/DTD/svg11.dtd">
<svg version="1.1" id="Capa_1" xmlns="http://www.w3.org/2000/svg" xmlns:xlink="http://www.w3.org/1999/xlink" x="0px" y="0px"
	 width="17.707px" height="25.066px" viewBox="0 0 17.707 25.066" enable-background="new 0 0 17.707 25.066" xml:space="preserve">
<path d="M14.207,22.198V0H3.5v22.198H0v2.868h17.707v-2.868H14.207z M12.946,10.19v3.194H9.753V10.19H12.946z M9.778,7.88V4.687
	h3.192V7.88H9.778z M12.946,15.647v3.191H9.753v-3.191H12.946z M4.788,1.288h8.286v1.646H4.788V1.288z M4.76,13.384V10.19h3.192
	v3.194H4.76z M7.953,15.647v3.191H4.76v-3.191H7.953z M4.788,4.687h3.19V7.88h-3.19V4.687z M5.971,20.536h5.866v0.001v1.661H5.971
	V20.536z"/>
</svg>
