<?xml version="1.0" encoding="utf-8"?>
<!-- Generator: Adobe Illustrator 17.0.0, SVG Export Plug-In . SVG Version: 6.00 Build 0)  -->
<!DOCTYPE svg PUBLIC "-//W3C//DTD SVG 1.1//EN" "http://www.w3.org/Graphics/SVG/1.1/DTD/svg11.dtd">
<svg version="1.1" id="Capa_1" xmlns="http://www.w3.org/2000/svg" xmlns:xlink="http://www.w3.org/1999/xlink" x="0px" y="0px"
	 width="27.693px" height="20.106px" viewBox="0 0 27.693 20.106" enable-background="new 0 0 27.693 20.106" xml:space="preserve">
<path fill="#231F20" d="M27.694,19.447H20.77l-0.238-0.45h6.412c0,0-3.07-5.687-5.365-7.684c-0.148-0.131-0.412,4.72-0.613-0.342
	c-0.2-5.063-0.659-0.521-0.725-0.305c0,0-0.211,1.933-0.621,0.108c-0.074-1.975-1.32,1.066-1.32,1.066l-0.77,1.471l-0.414-0.788
	l3.271-6.924L27.694,19.447z M19.872,19.652l0.24,0.454H0L9.498,0l6.959,13.184l0.416,0.785L19.872,19.652z M19.018,19.445
	c0,0-1.119-2.07-2.654-4.507l-0.424-0.666c-1.453-2.247-3.193-4.666-4.711-5.98c-0.219-0.186-0.6,6.852-0.889-0.496
	c-0.293-7.348-0.951-0.751-1.051-0.44c0,0-0.31,2.81-0.906,0.152C8.279,4.647,6.467,9.057,6.467,9.057L1.039,19.445H14.01H19.018z"
	/>
</svg>
