<?xml version="1.0" encoding="utf-8"?>
<!-- Generator: Adobe Illustrator 16.0.4, SVG Export Plug-In . SVG Version: 6.00 Build 0)  -->
<!DOCTYPE svg PUBLIC "-//W3C//DTD SVG 1.1//EN" "http://www.w3.org/Graphics/SVG/1.1/DTD/svg11.dtd">
<svg version="1.1" id="Capa_1" xmlns="http://www.w3.org/2000/svg" xmlns:xlink="http://www.w3.org/1999/xlink" x="0px" y="0px"
	 width="26.492px" height="22.26px" viewBox="0 0 26.492 22.26" enable-background="new 0 0 26.492 22.26" xml:space="preserve">
<path fill="#231F20" d="M22.742,6.522c-3.523-3.524-7.349,0-7.349,0v0.6h-0.899V6.504c1.244-0.496,2.127-1.707,2.127-3.13
	C16.621,1.508,15.109,0,13.246,0c-1.865,0-3.375,1.508-3.375,3.374c0,1.389,0.839,2.578,2.037,3.097v0.651h-0.809v-0.6
	c0,0-3.825-3.524-7.348,0c0,0-2.25,1.503-3.751,0c0,0,0.151,4.5,5.55,4.5c0,0,2.38,0.452,5.549-1.01V9.11h0.809v0.823h0.587
	l0.159,3.179c-1.84-0.09-3.252-0.543-3.25-1.086c0.003-0.465,1.03-0.847,2.467-0.998l0.001-0.184
	c-1.774,0.158-3.063,0.618-3.067,1.175c-0.003,0.515,1.079,0.961,2.629,1.17c-1.164,0.188-1.956,0.537-1.956,0.945
	c0,0.438,0.902,0.811,2.2,0.988c-1.068,0.159-1.799,0.477-1.803,0.845c-0.003,0.4,0.828,0.747,2.021,0.91
	c-0.954,0.147-1.607,0.431-1.607,0.761c0,0.344,0.7,0.635,1.708,0.777c-0.742,0.122-1.247,0.35-1.247,0.609
	c0,0.301,0.648,0.556,1.565,0.662c-0.571,0.1-0.962,0.271-0.962,0.477c0,0.281,0.728,0.516,1.681,0.559l0.077,1.535h0.491
	l0.053-1.535c0.962-0.041,1.701-0.273,1.701-0.559c0-0.217-0.415-0.396-1.034-0.492c0.854-0.113,1.451-0.357,1.451-0.646
	c0-0.252-0.447-0.471-1.141-0.598c1.053-0.138,1.787-0.438,1.787-0.791c0-0.326-0.61-0.607-1.541-0.756
	c1.152-0.152,1.953-0.482,1.955-0.871c0.002-0.38-0.758-0.707-1.86-0.879c1.33-0.174,2.258-0.553,2.258-0.997
	c0-0.413-0.771-0.769-1.944-0.954c1.438-0.201,2.432-0.617,2.435-1.105c0.002-0.574-1.353-1.062-3.201-1.23v0.197
	c1.465,0.158,2.519,0.561,2.515,1.029c-0.002,0.529-1.346,0.962-3.113,1.044l0.111-3.183h0.463V9.11h0.898v0.902
	c3.169,1.462,5.548,1.01,5.548,1.01c5.399,0,5.55-4.5,5.55-4.5C24.992,8.025,22.742,6.522,22.742,6.522z M9.999,14.138
	c0-0.398,0.881-0.74,2.12-0.877l0.545,0.033l0.088,1.771C11.189,14.987,9.999,14.604,9.999,14.138z M10.343,15.974
	c0.002-0.359,0.805-0.66,1.926-0.777v-0.008l0.49,0.033l0.08,1.6C11.423,16.748,10.339,16.394,10.343,15.974z M10.7,17.64
	c0-0.315,0.704-0.586,1.692-0.691v-0.016l0.455,0.029l0.07,1.412C11.663,18.317,10.7,18.013,10.7,17.64z M11.089,19.028
	c0-0.254,0.559-0.469,1.345-0.562l0.489,0.031l0.057,1.133C11.916,19.597,11.089,19.34,11.089,19.028z M11.622,20.166
	c0-0.2,0.435-0.372,1.051-0.444l0.312,0.014l0.045,0.91C12.229,20.604,11.622,20.406,11.622,20.166z M15.048,20.166
	c0,0.237-0.6,0.437-1.39,0.479l0.032-0.914l0.238-0.018C14.582,19.778,15.048,19.957,15.048,20.166z M15.387,19.028
	c0,0.291-0.726,0.537-1.693,0.597l0.039-1.124l0.386-0.02C14.859,18.577,15.387,18.784,15.387,19.028z M15.949,17.64
	c0,0.34-0.805,0.623-1.898,0.715l-0.041-0.006l-0.004,0.01l-0.269,0.017l0.05-1.405l0.463-0.021
	C15.239,17.054,15.949,17.319,15.949,17.64z M16.296,16.01c0,0.425-1.088,0.763-2.506,0.816l0.057-1.603l0.486-0.027v0.008
	C15.479,15.33,16.302,15.644,16.296,16.01z M14.519,13.265c1.232,0.137,2.115,0.475,2.115,0.873c0,0.471-1.205,0.854-2.782,0.928
	l0.062-1.766L14.519,13.265z M13.356,4.476c-0.648,0-1.17-0.523-1.17-1.169c0-0.647,0.522-1.171,1.17-1.171
	c0.644,0,1.168,0.524,1.168,1.171C14.524,3.953,14,4.476,13.356,4.476z"/>
</svg>
