<?xml version="1.0" encoding="utf-8"?>
<!-- Generator: Adobe Illustrator 17.0.0, SVG Export Plug-In . SVG Version: 6.00 Build 0)  -->
<!DOCTYPE svg PUBLIC "-//W3C//DTD SVG 1.1//EN" "http://www.w3.org/Graphics/SVG/1.1/DTD/svg11.dtd">
<svg version="1.1" id="Capa_1" xmlns="http://www.w3.org/2000/svg" xmlns:xlink="http://www.w3.org/1999/xlink" x="0px" y="0px"
	 width="25.162px" height="15.502px" viewBox="0 0 25.162 15.502" enable-background="new 0 0 25.162 15.502" xml:space="preserve">
<path fill="#231F20" d="M22.859,10.357l-0.013-2.408l2.316-1.296L12.546,0L0,6.787l5.03,2.888l0.01,1.715l0.001,0.137l0.046-0.022
	C5.034,11.577,5,11.65,5.001,11.725c0.004,0.843,3.411,1.512,7.616,1.489c4.203-0.022,7.606-0.729,7.602-1.571
	c0-0.075-0.039-0.147-0.091-0.22l0.046,0.022v-0.137l-0.009-1.722l2.181-1.357l0.011,2.132c-0.24,0.103-0.407,0.339-0.405,0.616
	c0.002,0.362,0.296,0.655,0.661,0.652c0.367-0.002,0.658-0.298,0.656-0.659C23.268,10.693,23.099,10.458,22.859,10.357z
	 M12.614,12.633c-3.731,0.021-6.757-0.389-6.76-0.912c-0.003-0.524,3.019-0.962,6.75-0.982c3.732-0.021,6.757,0.387,6.759,0.91
	C19.366,12.171,16.346,12.613,12.614,12.633z M19.993,8.188c-0.505-0.531-2.315-1.933-7.413-1.904
	C7.475,6.311,5.688,7.73,5.189,8.269L5.186,7.761c0,0,1.448-2.203,7.39-2.234c5.94-0.032,7.414,2.154,7.414,2.154L19.993,8.188z
	 M22.083,11.771l-0.257,3.73c0.795-1.249,1.459-0.784,1.459-0.784l-0.015-2.952C22.415,12.099,22.083,11.771,22.083,11.771z"/>
</svg>
