<?xml version="1.0" encoding="utf-8"?>
<!-- Generator: Adobe Illustrator 17.0.0, SVG Export Plug-In . SVG Version: 6.00 Build 0)  -->
<!DOCTYPE svg PUBLIC "-//W3C//DTD SVG 1.1//EN" "http://www.w3.org/Graphics/SVG/1.1/DTD/svg11.dtd">
<svg version="1.1" id="Capa_1" xmlns="http://www.w3.org/2000/svg" xmlns:xlink="http://www.w3.org/1999/xlink" x="0px" y="0px"
	 width="20.27px" height="22.805px" viewBox="0 0 20.27 22.805" enable-background="new 0 0 20.27 22.805" xml:space="preserve">
<path fill="#231F20" d="M10.888,21.676l-0.03-5.519l1.918-0.01l-1.329,1.745l3.86-0.02l0.02,3.618l0.634-0.003l-0.019-3.619
	l3.858-0.02l-2.548-2.975l1.406-0.008l-2.348-2.746l1.455-0.007l-1.93-2.256l0.893-0.004l-1.483-1.735l-1.312,1.725L11.45,6.941
	l2.33-0.014l-3.093-3.613l1.432-0.009l-2.38-2.778L7.607,3.329l1.451-0.007L6.28,6.966l2.289-0.011l-2.941,3.865L4.856,9.917
	l0.893-0.005L4.266,8.177l-1.332,1.75L3.84,9.922l-1.731,2.276l1.429-0.007l-2.106,2.766l1.325-0.007l-2.288,3.003l3.86-0.021
	l0.02,3.617l0.636-0.003l-0.02-3.617l3.855-0.021l-1.48-1.731l2.501-0.013l0.03,5.518l-6.076,0.032l0.004,0.565l13.167-0.072
	l-0.003-0.563C16.962,21.645,10.888,21.676,10.888,21.676z M13.631,12.135l0.885-0.004l-0.418,0.549
	C14.098,12.68,13.631,12.135,13.631,12.135z M14.818,9.865l-0.408,0.536l-0.455-0.531C13.955,9.869,14.818,9.865,14.818,9.865z
	 M13.691,11.348l-0.345,0.455l-0.384-0.45L13.691,11.348z M7.316,11.382l-0.568,0.746l-0.633-0.739
	C6.115,11.389,7.316,11.382,7.316,11.382z M5.333,12.181l1.381-0.009L6.06,13.031L5.333,12.181z"/>
</svg>
