<svg width="36.979" xmlns="http://www.w3.org/2000/svg" height="47.692"><g fill="#231f20"><path d="M19.452 20.94h3.417v3.417h-3.417zM19.452 15.098h3.417v3.419h-3.417zM14.105 15.098h3.418v3.419h-3.418zM19.479 9.206h3.418v3.417h-3.418zM14.135 9.206h3.417v3.417h-3.417zM0 0v36.978h11.635l6.854 10.714 6.855-10.714h11.635v-36.978h-36.979zm27.967 31.028h-18.957v-2.425h6.393v-.277h-2.646v-20.996h10.252v-1.762h-10.253v-1.38h11.465v24.139h-2.535v.277h6.281v2.424zM14.105 20.94h3.418v3.417h-3.418zM15.402 26.18h6.283v2.147h-6.283z"/></g></svg>