<?xml version="1.0" encoding="utf-8"?>
<!-- Generator: Adobe Illustrator 17.0.0, SVG Export Plug-In . SVG Version: 6.00 Build 0)  -->
<!DOCTYPE svg PUBLIC "-//W3C//DTD SVG 1.1//EN" "http://www.w3.org/Graphics/SVG/1.1/DTD/svg11.dtd">
<svg version="1.1" id="Capa_1" xmlns="http://www.w3.org/2000/svg" xmlns:xlink="http://www.w3.org/1999/xlink" x="0px" y="0px"
	 width="36.977px" height="47.693px" viewBox="0 0 36.977 47.693" enable-background="new 0 0 36.977 47.693" xml:space="preserve">
<path fill="#231F20" d="M18.436,11.646c-4.091,0-7.417,3.328-7.417,7.418c0,4.089,3.326,7.418,7.417,7.418
	c4.09,0,7.417-3.329,7.417-7.418C25.853,14.975,22.526,11.646,18.436,11.646z M18.436,25.962c-3.808,0-6.898-3.089-6.898-6.897
	c0-3.809,3.09-6.897,6.898-6.897c3.808,0,6.897,3.087,6.897,6.897C25.332,22.873,22.243,25.962,18.436,25.962z M2.405,3.102V35.27
	h10.118l5.963,9.321l5.964-9.321h10.12V3.102H2.405z M9.639,15.819L9.639,15.819c-0.039,1.28-1.441,1.769-1.441,1.769v2.57H8.2
	L8.199,26.07c0,0-0.567,0.734-1.301,0v-8.484h0.017c-0.856-0.364-1.488-0.489-1.528-1.768H5.382v-4.008h0.642l0.314,3.874h0.758
	l0.095-3.954h0.617l0.075,3.954h0.891l0.204-3.874h0.666l0.003,4.008H9.639z M18.436,27.188c-4.48,0-8.124-3.643-8.124-8.122
	c0-4.481,3.643-8.123,8.124-8.123c4.479,0,8.124,3.643,8.124,8.123C26.56,23.545,22.915,27.188,18.436,27.188z M31.394,18.635
	h-1.572v7.951h-1.815V11.545h1.815C29.823,11.545,32.298,14.683,31.394,18.635z M20.931,19.064c0,1.378-1.117,2.495-2.495,2.495
	c-1.378,0-2.495-1.117-2.495-2.495c0-1.378,1.117-2.495,2.495-2.495C19.814,16.569,20.931,17.686,20.931,19.064z"/>
</svg>
