<?xml version="1.0" encoding="utf-8"?>
<!-- Generator: Adobe Illustrator 17.0.0, SVG Export Plug-In . SVG Version: 6.00 Build 0)  -->
<!DOCTYPE svg PUBLIC "-//W3C//DTD SVG 1.1//EN" "http://www.w3.org/Graphics/SVG/1.1/DTD/svg11.dtd">
<svg version="1.1" id="Capa_1" xmlns="http://www.w3.org/2000/svg" xmlns:xlink="http://www.w3.org/1999/xlink" x="0px" y="0px"
	 width="36.979px" height="47.692px" viewBox="0 0 36.979 47.692" enable-background="new 0 0 36.979 47.692" xml:space="preserve">
<path fill="#231F20" d="M18.491,10.044c-4.94,0-8.94,4.002-8.94,8.94c0,4.937,4,8.937,8.94,8.937c4.936,0,8.936-4.001,8.936-8.937
	C27.429,14.046,23.427,10.044,18.491,10.044z M18.614,11.498c0.964,0,1.557,0.65,1.577,1.499c0,0.83-0.613,1.501-1.618,1.501
	c-0.95,0-1.56-0.671-1.56-1.501C17.013,12.148,17.644,11.498,18.614,11.498z M21.076,25.335h-0.982v0.011h-3.004v-0.011h-1.184
	v-1.668h1.184v-6.233h-1.118V15.69h1.118v-0.005h3.004v7.984h0.982V25.335z M3.5,4.514v29.978h9.431l5.557,8.686l5.559-8.686h9.431
	V4.514H3.5z M18.491,29.663c-5.899,0-10.682-4.781-10.682-10.679c0-5.901,4.782-10.681,10.682-10.681
	c5.898,0,10.679,4.78,10.679,10.681C29.17,24.882,24.39,29.663,18.491,29.663z"/>
</svg>
