<?xml version="1.0" encoding="utf-8"?>
<!-- Generator: Adobe Illustrator 17.0.0, SVG Export Plug-In . SVG Version: 6.00 Build 0)  -->
<!DOCTYPE svg PUBLIC "-//W3C//DTD SVG 1.1//EN" "http://www.w3.org/Graphics/SVG/1.1/DTD/svg11.dtd">
<svg version="1.1" id="Capa_1" xmlns="http://www.w3.org/2000/svg" xmlns:xlink="http://www.w3.org/1999/xlink" x="0px" y="0px"
	 width="20.562px" height="20.56px" viewBox="0 0 20.562 20.56" enable-background="new 0 0 20.562 20.56" xml:space="preserve">
<path fill="#231F20" d="M10.233,0.843c-5.214,0.028-9.416,4.275-9.39,9.487c0.028,5.212,4.278,9.414,9.49,9.386
	c5.212-0.028,9.415-4.274,9.386-9.488C19.692,5.018,15.445,0.816,10.233,0.843z M8.396,12.864l0.516-0.004l-1.563,2.231L7.133,14.75
	L8.396,12.864z M4.739,8.847l0.233-0.328l2.164,0.658l0.163,0.496L4.739,8.847z M8.56,12.582c-0.054-0.169-0.946-2.864-1.087-3.284
	L7.467,9.286L7.456,9.251c0.131-0.094,1.956-1.396,2.59-1.853l0.21-0.151l0.211,0.149l2.611,1.824l-0.007,0.035l-0.007,0.012
	c-0.131,0.421-1.001,3.128-1.054,3.296h-0.072l-0.484,0.004L8.56,12.582z M10.032,4.484l0.211,0.08l0.208-0.083l0.015,2.571
	l-0.21-0.148l-0.21,0.151L10.032,4.484z M12.137,12.844l1.343,1.866l-0.017,0.006l-0.254,0.364l-1.588-2.234L12.137,12.844z
	 M13.241,9.641l0.16-0.497l2.146-0.663l0.277,0.33L13.241,9.641z M15.76,5.203l-0.039,0.603c-0.789-0.985-1.834-1.756-3.038-2.207
	l0.566-0.224C14.211,3.802,15.063,4.428,15.76,5.203z M8.083,1.947l0.246-0.493c0.599-0.13,1.221-0.203,1.855-0.204
	c0.638-0.005,1.259,0.06,1.859,0.183l0.276,0.498l0.696,1.236L12.88,3.221l-0.604,0.24l-1.825,0.719l-0.208,0.083l-0.21-0.081
	L8.169,3.467L7.557,3.233L7.452,3.195L8.083,1.947z M7.179,3.39l0.572,0.222C6.575,4.057,5.552,4.81,4.773,5.774L4.728,5.179
	C5.41,4.425,6.247,3.816,7.179,3.39z M2.823,10.775L1.741,9.744L1.347,9.365c0.117-1.272,0.501-2.466,1.094-3.53L2.984,5.74
	L4.47,5.471v0.005l0.049,0.637l0.17,2.276l0.004,0.063L4.457,8.754L3.223,10.32l-0.376,0.476L2.823,10.775z M2.871,11.206
	l0.002,0.008l0.371-0.468c0.096,1.202,0.498,2.318,1.125,3.272l-0.557-0.119C3.319,13.076,3.007,12.198,2.871,11.206z M7.311,18.154
	l-0.5,0.259c-1.162-0.483-2.203-1.213-3.06-2.119l0.084-0.536l0.22-1.449l0.017-0.082l0.547,0.142l2.291,0.609l0.047,0.011
	l0.194,0.307l1.01,1.58l0.342,0.53l0.066,0.099L7.311,18.154z M10.274,17.613c-0.475,0.002-0.937-0.041-1.39-0.126l-0.318-0.498
	c0.545,0.134,1.117,0.205,1.703,0.201c0.624-0.005,1.23-0.088,1.8-0.245l-0.321,0.51C11.276,17.555,10.781,17.609,10.274,17.613z
	 M13.812,18.348L13.306,18.1l-1.241-0.612l0.075-0.122l0.341-0.549l1.164-1.862c0.07-0.018,1.396-0.384,2.232-0.618l0.63-0.173
	l0.018-0.005l0.265,1.421l0.1,0.53C16.04,17.066,14.993,17.829,13.812,18.348z M16.72,13.817l-0.595,0.163
	c0.643-0.991,1.044-2.154,1.114-3.399l0.385,0.472C17.5,12.047,17.188,12.982,16.72,13.817z M17.709,10.716l-0.052-0.064
	l-0.405-0.502l-1.176-1.457l-0.239-0.3l0.005-0.064l0.136-2.176l0.043-0.643l0.007-0.099c0.145,0.027,0.822,0.14,1.396,0.233
	l0.545,0.095c0.624,1.079,1.025,2.3,1.147,3.603l-0.393,0.383L17.709,10.716z"/>
</svg>
