<?xml version="1.0" encoding="utf-8"?>
<!-- Generator: Adobe Illustrator 16.0.4, SVG Export Plug-In . SVG Version: 6.00 Build 0)  -->
<!DOCTYPE svg PUBLIC "-//W3C//DTD SVG 1.1//EN" "http://www.w3.org/Graphics/SVG/1.1/DTD/svg11.dtd">
<svg version="1.1" id="Capa_1" xmlns="http://www.w3.org/2000/svg" xmlns:xlink="http://www.w3.org/1999/xlink" x="0px" y="0px"
	 width="31.279px" height="22.014px" viewBox="0 0 31.279 22.014" enable-background="new 0 0 31.279 22.014" xml:space="preserve">
<path d="M31.28,16.966l-0.944-0.158l-0.25,1.495c-4.606-3.642-14.876-17.68-14.986-17.83L14.751,0l-0.302,0.501
	C11.739,5.012,4.124,16.814,1.14,17.815l-0.263-0.604L0,17.593l1.755,4.04L1.694,21.72h0.1l0.128,0.294L2.6,21.72H29.84
	l-0.099-0.124l0.743,0.124l0.455-2.711l0.047-0.087l-0.03-0.021L31.28,16.966z M19.671,20.853h-8.741
	c-0.265-0.593-0.424-1.242-0.424-1.934c0-2.646,2.146-4.795,4.793-4.795c2.65,0,4.795,2.148,4.795,4.795
	C20.094,19.61,19.935,20.26,19.671,20.853z M29.567,21.379L14.913,2.907L2.4,20.715l-0.951-2.189
	C5.038,17.168,13.117,4.18,14.812,1.401c1.914,2.599,10.949,14.712,15.126,17.768L29.567,21.379z"/>
</svg>
